<?xml version="1.0" standalone="no"?><!DOCTYPE svg PUBLIC "-//W3C//DTD SVG 1.1//EN" "http://www.w3.org/Graphics/SVG/1.1/DTD/svg11.dtd"><svg t="1715490740389" class="icon" viewBox="0 0 1024 1024" version="1.1" xmlns="http://www.w3.org/2000/svg" p-id="14805" data-spm-anchor-id="a313x.search_index.0.i17.7c0b3a814fOjDJ" xmlns:xlink="http://www.w3.org/1999/xlink" width="200" height="200"><path d="M552.698362 282.168798h-40.289624c-34.311935 0-62.167965 27.856031-62.167965 62.167965v227.152181c0 34.311935 27.856031 62.167965 62.167965 62.167966h36.703011c54.157862 0 96.719008-16.498422 126.487898-48.897496 28.095138-30.844875 42.441592-73.406021 42.441592-126.84656s-13.27047-96.719008-39.452747-126.487899c-28.573353-32.638182-70.895391-49.256157-125.89013-49.256157z m100.305621 175.744056c0 37.898548-8.84698 66.950117-26.182278 85.959167-18.411282 19.248159-46.625974 28.932015-83.926753 28.932015h-17.454852c-5.260366 0-9.564302-4.303936-9.564302-9.564302V352.46642c0-5.260366 4.303936-9.564302 9.564302-9.564302h21.519681c38.137656 0 64.917702 9.205641 81.894339 28.214692 16.13976 18.172174 24.269417 47.343297 24.269417 86.796044zM303.309178 314.448319v286.92907c0 19.726374 16.13976 35.866134 35.866134 35.866134s35.866134-16.13976 35.866134-35.866134v-286.92907c0-19.726374-16.13976-35.866134-35.866134-35.866134s-35.866134 16.13976-35.866134 35.866134z" p-id="14806" data-spm-anchor-id="a313x.search_index.0.i25.7c0b3a814fOjDJ" class="selected" fill="#176CAC"></path><path d="M227.15342 162.615018a32.56645 32.56645 0 0 0 45.071775 0l0.239108-0.239107a31.717618 31.717618 0 0 0-0.239108-44.832667l-54.157862-53.799201h545.284789c44.713114 0 77.231742 28.334246 77.231741 67.428331v225.597982c0 17.574406 14.2269 31.920859 31.801305 31.92086h0.239108c17.574406 0 31.801305-14.346454 31.801305-31.92086V131.172374c0.239108-36.822564-15.541991-71.971375-43.398022-96.001684A147.553275 147.553275 0 0 0 762.873906 0.021878H218.067333L137.368532 0.260986h-8.368765S128.521552 0.978309 128.401998 1.097862C114.653314 23.932634 117.642158 53.940633 137.368532 73.547453L227.15342 162.615018zM886.97073 842.039148l-89.784889-89.067566c-5.977689-6.097243-14.2269-9.325195-22.715218-9.205641-8.368765 0-16.498422 3.46706-22.356557 9.444748a31.78935 31.78935 0 0 0 0.239108 45.071775l54.157862 53.799201h-546.360772c-41.1265 0-77.231742-39.930962-77.231742-85.361399V559.174905c0-17.693959-14.346454-31.920859-31.920859-31.920859C133.542811 527.254046 119.555019 541.480946 119.555019 558.935798v207.545361c0.358661 37.898548 14.466007 74.242897 39.811408 102.457589a135.454432 135.454432 0 0 0 100.783837 46.745528h546.360772l-54.157862 53.799201a31.896948 31.896948 0 0 0-0.239108 45.071774 31.896948 31.896948 0 0 0 45.071775 0.239108l89.784889-89.067566 0.478215-0.478215a58.880236 58.880236 0 0 0-0.478215-83.20943z" p-id="14807" data-spm-anchor-id="a313x.search_index.0.i18.7c0b3a814fOjDJ" class="" fill="#42b983"></path></svg>