<?xml version="1.0" standalone="no"?><!DOCTYPE svg PUBLIC "-//W3C//DTD SVG 1.1//EN" "http://www.w3.org/Graphics/SVG/1.1/DTD/svg11.dtd"><svg t="1714384551648" class="icon" viewBox="0 0 1024 1024" version="1.1" xmlns="http://www.w3.org/2000/svg" p-id="48575" xmlns:xlink="http://www.w3.org/1999/xlink" width="256" height="256"><path d="M315.125 905.75h-56.19375A84.43125 84.43125 0 0 1 174.5 821.4875V602.39375c0-36.9-19.575-66.825-37.85625-86.7375 20.3625-19.0125 38.53125-49.6125 37.85625-94.44375-1.125-72.5625-0.3375-217.9125-0.3375-218.025A85.05 85.05 0 0 1 258.875 118.25h30.31875a28.125 28.125 0 1 0-0.05625-56.25H258.875A141.4125 141.4125 0 0 0 117.9125 202.9625S117.18125 349.1 118.25 422c0.73125 48.9375-32.9625 61.93125-36.39375 63.1125a28.06875 28.06875 0 0 0-7.14375 50.4C86.01875 542.9375 118.25 571.175 118.25 602.39375v219.09375A140.79375 140.79375 0 0 0 258.93125 962H315.125a28.125 28.125 0 0 0 0-56.25zM942.5375 485.225c-3.825-1.29375-37.575-14.2875-36.7875-63.225 1.125-72.9 0.3375-218.98125 0.3375-218.98125A141.35625 141.35625 0 0 0 765.125 62h-30.2625a28.125 28.125 0 0 0 0 56.25h30.2625c46.63125 0 84.65625 38.08125 84.7125 84.99375 0 0.05625 0.7875 145.40625-0.3375 217.96875-0.675 44.83125 17.49375 75.43125 37.85625 94.5-18.28125 19.85625-37.85625 49.78125-37.85625 86.68125v219.09375c0 46.4625-37.9125 84.2625-84.43125 84.2625H708.875a28.125 28.125 0 0 0 0 56.25h56.19375A140.79375 140.79375 0 0 0 905.75 821.4875V602.39375c0-30.99375 31.55625-58.8375 43.5375-66.88125a28.40625 28.40625 0 0 0-6.75-50.2875z" p-id="48576"></path><path d="M315.125 512m-56.25 0a56.25 56.25 0 1 0 112.5 0 56.25 56.25 0 1 0-112.5 0Z" fill="#d81e06" p-id="48577"></path><path d="M512 512m-56.25 0a56.25 56.25 0 1 0 112.5 0 56.25 56.25 0 1 0-112.5 0Z" fill="#d81e06" p-id="48578"></path><path d="M708.875 512m-56.25 0a56.25 56.25 0 1 0 112.5 0 56.25 56.25 0 1 0-112.5 0Z" fill="#d81e06" p-id="48579"></path></svg>