<svg xmlns="http://www.w3.org/2000/svg" viewBox="0 0 22 28" height="50"><g fill="none" fill-rule="nonzero"><path fill="#433D3D" d="M12.3 4.3a1 1 0 00-.71-.3H1a1 1 0 00-1 1v22a1 1 0 001 1h16a1 1 0 001-1V10.42a1 1 0 00-.3-.71l-5.4-5.42zm3.45 21.45H2.25V6.25h8.82l4.68 4.68v14.82z"></path><path fill="#AAA" d="M21.7 7.58L14.1.28a1 1 0 00-.7-.28H4.26A.25.25 0 004 .25V2c0 .14.11.25.25.25h8.66l6.84 6.58v14.92c0 .14.11.25.25.25h1.75c.14 0 .25-.11.25-.25V8.3c0-.27-.1-.53-.3-.72z"></path><path fill="#FF4136" d="M12.52 20H5.48c-.12 0-.23.1-.23.22v1.31c0 .12.1.22.23.22h7.04c.12 0 .23-.1.23-.22v-1.31c0-.12-.1-.22-.23-.22z"></path><path fill="#2ECC40" d="M9.88 10.47c0-.12-.1-.22-.22-.22H8.34c-.12 0-.21.1-.21.22v2.65H5.47c-.12 0-.23.1-.23.22v1.32c0 .12.1.21.23.21h2.64v2.66c0 .12.1.22.22.22h1.32c.12 0 .21-.1.21-.22v-2.66h2.65c.12 0 .23-.1.23-.21v-1.32c0-.12-.1-.21-.23-.21H9.88v-2.66z"></path></g></svg>