<?xml version="1.0" standalone="no"?><!DOCTYPE svg PUBLIC "-//W3C//DTD SVG 1.1//EN" "http://www.w3.org/Graphics/SVG/1.1/DTD/svg11.dtd"><svg t="1714384443309" class="icon" viewBox="0 0 1024 1024" version="1.1" xmlns="http://www.w3.org/2000/svg" p-id="41029" xmlns:xlink="http://www.w3.org/1999/xlink" width="256" height="256"><path d="M512 778.24a33.28 33.28 0 0 0 0-64H145.92a33.92 33.92 0 0 1-33.92-33.28V279.04a33.28 33.28 0 0 1 33.92-33.28H512a33.28 33.28 0 0 0 33.28-33.28A33.28 33.28 0 0 0 512 179.2H112a64 64 0 0 0-64 64v465.92a64 64 0 0 0 64 64z m400-599.04h-64a32.64 32.64 0 0 0-33.28 32.64 33.28 33.28 0 0 0 32.64 33.92h33.28a33.28 33.28 0 0 1 33.92 33.28v399.36a33.92 33.92 0 0 1-33.92 33.28h-32.64a33.28 33.28 0 0 0-33.28 33.28 32.64 32.64 0 0 0 32.64 33.28h67.2a64 64 0 0 0 64-64V245.76a64 64 0 0 0-64-64z m0 0" fill="#6B768F" p-id="41030"></path><path d="M212.48 448a33.28 33.28 0 1 0 0 64h199.68a33.28 33.28 0 0 0 0-64z m632.96 466.56h-133.76V112h133.76a33.28 33.28 0 0 0 33.28-33.28 33.92 33.92 0 0 0-33.28-33.28H512a33.28 33.28 0 0 0-33.28 33.28 33.28 33.28 0 0 0 33.28 33.28h133.12v800H512a33.28 33.28 0 0 0-33.28 33.28 33.92 33.92 0 0 0 33.28 33.28h333.44a33.92 33.92 0 0 0 33.28-33.28 33.28 33.28 0 0 0-33.28-33.28z m0 0" fill="#407CD5" p-id="41031"></path></svg>