<svg xmlns="http://www.w3.org/2000/svg" width="128" height="128" viewBox="0 0 24 24"><path fill="#4caf50" d="M8.937 17.45A.75.75 0 0 0 8.25 17H6V3a1 1 0 1 0-2 0v14H1.75a.75.75 0 0 0-.55 1.26l3.25 3.5a.752.752 0 0 0 1.1 0l3.25-3.5a.748.748 0 0 0 .137-.81z"/><g fill="#607d8b"><path d="M16.5 10a.75.75 0 0 1-.75-.75V3.5h-1a.75.75 0 0 1 0-1.5h1.75a.75.75 0 0 1 .75.75v6.5a.75.75 0 0 1-.75.75zM17.25 22h-2.5a.75.75 0 0 1 0-1.5h2.5a.25.25 0 0 0 .25-.25V19h-1.75c-.965 0-1.75-.785-1.75-1.75v-1.5c0-.965.785-1.75 1.75-1.75h1.5c.965 0 1.75.785 1.75 1.75v4.5c0 .965-.785 1.75-1.75 1.75zm-1.5-6.5a.25.25 0 0 0-.25.25v1.5c0 .138.112.25.25.25h1.75v-1.75a.25.25 0 0 0-.25-.25z"/><path d="M18.25 10h-3.5a.75.75 0 0 1 0-1.5h3.5a.75.75 0 0 1 0 1.5z"/></g></svg>