<?xml version="1.0" standalone="no"?><!DOCTYPE svg PUBLIC "-//W3C//DTD SVG 1.1//EN" "http://www.w3.org/Graphics/SVG/1.1/DTD/svg11.dtd"><svg t="1714383517710" class="icon" viewBox="0 0 1024 1024" version="1.1" xmlns="http://www.w3.org/2000/svg" p-id="19156" xmlns:xlink="http://www.w3.org/1999/xlink" width="256" height="256"><path d="M4.52 36.87m98.67 0l817.62 0q98.67 0 98.67 98.67l0 608.47q0 98.67-98.67 98.67l-817.62 0q-98.67 0-98.67-98.67l0-608.47q0-98.67 98.67-98.67Z" fill="#12C3A8" opacity=".9" p-id="19157"></path><path d="M939 506.7v71.22a12.69 12.69 0 0 1-5.28 10.31L805.36 709.46a12.72 12.72 0 0 0-5.28 10.31v199.86a12.68 12.68 0 0 1-8.55 12L655.12 965a12.69 12.69 0 0 1-16.84-12V724.73a12.67 12.67 0 0 0-5.1-10.17L504.29 588.24a12.72 12.72 0 0 1-5.09-10.17V506.7a12.7 12.7 0 0 1 12.7-12.7h414.4a12.7 12.7 0 0 1 12.7 12.7z" fill="#FFEDD5" p-id="19158"></path><path d="M651.25 987.13a35 35 0 0 1-20-6.5A34 34 0 0 1 617 953V728.3L489.38 603.47c-6.38-4.46-11.5-14.67-11.5-25.42v-71.33a34.1 34.1 0 0 1 34-34h414.41a34.1 34.1 0 0 1 34 34v71.21a34.06 34.06 0 0 1-14.25 27.66L821.42 723.68v196a34.05 34.05 0 0 1-23 32.21l-138.21 33.79a26.23 26.23 0 0 1-8.96 1.45z m-1.62-42.7a8.26 8.26 0 0 0-1.42 0.37zM520.54 574.55L648.08 699.3c6.46 4.63 11.55 14.79 11.55 25.42V942l119.12-29.2v-193A34.08 34.08 0 0 1 793 692.09L917.67 574v-58.66H520.54z m98.29 155.58a6.93 6.93 0 0 0 1.5 1.46z m201.3-5.25l-0.13 0.12a0.63 0.63 0 0 0 0.13-0.12zM919 572.68a0.5 0.5 0 0 0-0.08 0.12l0.08-0.08z m-402-1.63l1.71 1.71a10.64 10.64 0 0 0-1.71-1.71z" fill="#FFA32B" p-id="19159"></path><path d="M436.33 340.26q25.76 21.44 58.67 21.42c12.42 0 21.83-2.13 28.08-6.42s9.34-9.79 9.34-16.5c0-5.83-2.42-11.29-7.42-16.46s-18.08-12.17-39.42-21q-50.11-21.3-50.08-61.87 0-29.82 22.67-46.34t60.16-16.5q31.38 0 52.67 8.13v42.83c-14.42-9.75-31.17-14.62-50.42-14.62-11.25 0-20.25 2-26.91 6.12s-10.09 9.63-10.09 16.5c0 5.54 2.25 10.63 6.92 15.29s15.92 10.92 34.08 18.84c21.25 9.12 35.92 18.75 43.84 28.87s12 22.21 12 36.21c0 20.5-7.34 36.17-21.84 47s-35.25 16.16-62.08 16.16c-24.5 0-44.5-3.95-60.17-11.91zM826.25 453.93c-9 2.66-19.92 4-32.58 4q-22 0-42-12.13c-13.34-8-30.59-24.16-51.5-48.37Q656 396 629.5 365.55T602.92 290q0-50.94 29.16-82.17t78.17-31.21q44.75 0 73 30t28.33 79q0 38.57-17.25 66.33t-49.16 38.67q13.5 14.63 26.5 21.63t33 6.95a58.74 58.74 0 0 0 21.58-3.7zM650.83 287.51q0 32.31 15.34 51.58c10.16 12.84 23.91 19.25 41 19.25q26.25 0 41.41-18.62c10.17-12.42 15.25-29.59 15.25-51.38q0-34.12-14.75-53.21c-9.83-12.7-23.33-19-40.66-19q-26.38 0-42 19.63t-15.59 51.75zM973.33 394.13H847.75V180.18h45.58v176.66h80z" fill="#FFFFFF" p-id="19160"></path><path d="M327.42 279.93H144.63a42.67 42.67 0 0 1 0-85.34h182.79a42.67 42.67 0 0 1 0 85.34z" fill="#FFFFFF" opacity=".5" p-id="19161"></path><path d="M327.42 426H144.63a42.67 42.67 0 1 1 0-85.33h182.79a42.67 42.67 0 0 1 0 85.33z" fill="#FFFFFF" opacity=".5" p-id="19162"></path><path d="M97.17 488.98m29.66 0l214.03 0q29.66 0 29.66 29.66l0 180.58q0 29.66-29.66 29.66l-214.03 0q-29.66 0-29.66-29.66l0-180.58q0-29.66 29.66-29.66Z" fill="#FFFFFF" opacity=".5" p-id="19163"></path></svg>