<?xml version="1.0" standalone="no"?><!DOCTYPE svg PUBLIC "-//W3C//DTD SVG 1.1//EN" "http://www.w3.org/Graphics/SVG/1.1/DTD/svg11.dtd"><svg t="1714496517115" class="icon" viewBox="0 0 1024 1024" version="1.1" xmlns="http://www.w3.org/2000/svg" p-id="17685" xmlns:xlink="http://www.w3.org/1999/xlink" width="200" height="200"><path d="M152.576 498.688c12.288 9.557333 28.672 17.749333 49.493333 23.893333 20.48 6.144 40.277333 9.216 58.709334 9.216 56.661333 0 84.992-18.090667 84.992-54.272 0-10.24-3.072-19.456-9.216-27.306666-6.144-8.192-14.336-15.36-24.917334-21.504-10.581333-6.144-30.378667-15.701333-59.733333-28.672-40.277333-18.090667-67.242667-34.816-79.872-50.517334-12.970667-15.701333-19.114667-33.450667-19.114667-53.248 0-30.037333 13.312-53.930667 40.277334-71.68 26.965333-17.749333 60.757333-26.624 101.717333-26.624 39.936 0 69.632 4.437333 88.405333 12.970667v51.2c-24.234667-15.018667-54.954667-22.869333-92.16-22.869333-24.576 0-44.714667 4.778667-60.416 13.994666-15.701333 9.216-23.210667 22.186667-23.210666 38.912 0 14.677333 5.461333 26.624 16.042666 35.84 10.922667 9.216 34.133333 21.845333 69.973334 37.888 39.594667 17.066667 67.242667 34.133333 82.944 51.2 15.701333 17.066667 23.552 36.181333 23.552 57.344 0 31.744-12.970667 56.32-38.570667 73.386667-25.6 17.066667-61.44 25.6-106.837333 25.6-16.042667 0-34.474667-2.048-55.978667-6.144-21.162667-4.096-36.864-8.874667-46.421333-15.018667l0.341333-53.589333z m0 0" fill="#969696" p-id="17686"></path><path d="M755.029333 214.357333h-310.954666V266.24h310.954666V214.357333z" fill="#969696" p-id="17687"></path><path d="M652.970667 372.394667h-172.032c-20.48 0-36.864 16.384-36.864 36.864v172.032c0 20.48 16.384 36.864 36.864 36.864h172.032c20.48 0 36.864-16.384 36.864-36.864v-172.032c0-20.48-16.384-36.864-36.864-36.864z m-9.216 137.898666h-61.44v61.44h-30.72v-61.44h-61.44v-30.72h61.44v-61.44h30.72v61.44h61.44v30.72zM959.829333 372.394667h-172.032c-20.48 0-36.864 16.384-36.864 36.864v172.032c0 20.48 16.384 36.864 36.864 36.864h172.032c20.48 0 36.864-16.384 36.864-36.864v-172.032c0-20.48-16.384-36.864-36.864-36.864z m-9.216 137.898666h-153.6v-30.72h153.6v30.72zM652.970667 679.253333h-172.032c-20.48 0-36.864 16.384-36.864 36.864v172.032c0 20.48 16.384 36.864 36.864 36.864h172.032c20.48 0 36.864-16.384 36.864-36.864v-172.032c0-20.48-16.384-36.864-36.864-36.864z m-20.821334 166.229334l-21.845333 21.845333-43.349333-43.349333-43.349334 43.008-21.504-21.845334 43.349334-43.349333-43.690667-43.008 21.504-21.845333 43.349333 43.349333 43.349334-43.349333 21.845333 21.845333-43.008 43.349333 43.349333 43.349334z" fill="#6B95CA" p-id="17688"></path><path d="M433.152 648.533333H133.461333v51.882667h266.581334c4.096-21.162667 16.042667-39.594667 33.109333-51.882667z" fill="#969696" p-id="17689"></path><path d="M398.336 777.898667H81.578667V136.533333h725.333333v189.781334h51.541333V84.992H29.696v744.789333h368.64z" fill="#969696" p-id="17690"></path><path d="M959.829333 679.253333h-172.032c-20.48 0-36.864 16.384-36.864 36.864v172.032c0 20.48 16.384 36.864 36.864 36.864h172.032c20.48 0 36.864-16.384 36.864-36.864v-172.032c0-20.48-16.384-36.864-36.864-36.864z m-24.576 168.96h-122.88v-30.72h122.88v30.72z m0-61.44h-122.88v-30.72h122.88v30.72z" fill="#6B95CA" p-id="17691"></path></svg>